STARTFONT 2.2
COMMENT ======================================================================
COMMENT Copyright (C) 1993-2024 Darren Embry
COMMENT 
COMMENT Distributed under the terms of the SIL Open Font License 1.1
COMMENT (SIL OFL-1.1) https://opensource.org/license/ofl-1-1/
COMMENT ======================================================================
FONT -dse-cantontypewriter-medium-r-normal--18-130-100-100-c-72-iso10646-1
SIZE 13 100 100
FONTBOUNDINGBOX 10 18 0 -4
STARTPROPERTIES 18
FOUNDRY "dse"
FAMILY_NAME "cantontypewriter"
WEIGHT_NAME "medium"
SLANT "r"
SETWIDTH_NAME "normal"
ADD_STYLE_NAME ""
PIXEL_SIZE 18
POINT_SIZE 130
RESOLUTION_X 100
RESOLUTION_Y 100
SPACING "c"
AVERAGE_WIDTH 72
CHARSET_REGISTRY "iso10646"
CHARSET_ENCODING "1"
FONT_ASCENT 14
FONT_DESCENT 4
DEFAULT_CHAR 32
COPYRIGHT "Copyright (C) 1993-2024 Darren Embry"
ENDPROPERTIES
CHARS 202
STARTCHAR space
ENCODING 32
BBX 10 18 0 -4
SWIDTH 556 0
DWIDTH 10 0
BITMAP
0000
0000
0000
0000
0000
0000
0000
0000
0000
0000
0000
0000
0000
0000
0000
0000
0000
0000
ENDCHAR
STARTCHAR exclam
ENCODING 33
BBX 10 18 0 -4
SWIDTH 556 0
DWIDTH 10 0
BITMAP
0000
0000
0000
0000
0800
1c00
1c00
1c00
0800
0800
0000
0800
1c00
0800
0000
0000
0000
0000
ENDCHAR
STARTCHAR quotedbl
ENCODING 34
BBX 10 18 0 -4
SWIDTH 556 0
DWIDTH 10 0
BITMAP
0000
0000
0000
0000
2200
7700
7700
2200
2200
0000
0000
0000
0000
0000
0000
0000
0000
0000
ENDCHAR
STARTCHAR numbersign
ENCODING 35
BBX 10 18 0 -4
SWIDTH 556 0
DWIDTH 10 0
BITMAP
0000
0000
0000
0000
0900
0900
1200
7f80
1200
2400
ff00
2400
4800
4800
0000
0000
0000
0000
ENDCHAR
STARTCHAR dollar
ENCODING 36
BBX 10 18 0 -4
SWIDTH 556 0
DWIDTH 10 0
BITMAP
0000
0000
0800
0800
1e00
2b00
4900
6800
3e00
0b00
0900
4900
6a00
3c00
0800
0800
0000
0000
ENDCHAR
STARTCHAR percent
ENCODING 37
BBX 10 18 0 -4
SWIDTH 556 0
DWIDTH 10 0
BITMAP
0000
0000
0000
0000
3100
5a00
8a00
d400
6800
0b00
1580
2880
2d00
4600
0000
0000
0000
0000
ENDCHAR
STARTCHAR ampersand
ENCODING 38
BBX 10 18 0 -4
SWIDTH 556 0
DWIDTH 10 0
BITMAP
0000
0000
0000
0000
1800
2c00
4400
6800
3180
5900
8a00
8c00
d680
6300
0000
0000
0000
0000
ENDCHAR
STARTCHAR quotesingle
ENCODING 39
BBX 10 18 0 -4
SWIDTH 556 0
DWIDTH 10 0
BITMAP
0000
0000
0000
0000
0800
1c00
1c00
0800
0800
0000
0000
0000
0000
0000
0000
0000
0000
0000
ENDCHAR
STARTCHAR parenleft
ENCODING 40
BBX 10 18 0 -4
SWIDTH 556 0
DWIDTH 10 0
BITMAP
0000
0000
0000
0200
0400
0800
0800
1000
1000
1000
1000
1000
1800
0800
0c00
0700
0200
0000
ENDCHAR
STARTCHAR parenright
ENCODING 41
BBX 10 18 0 -4
SWIDTH 556 0
DWIDTH 10 0
BITMAP
0000
0000
0000
2000
7000
1800
0800
0c00
0400
0400
0400
0400
0400
0800
0800
1000
2000
0000
ENDCHAR
STARTCHAR asterisk
ENCODING 42
BBX 10 18 0 -4
SWIDTH 556 0
DWIDTH 10 0
BITMAP
0000
0000
0000
0000
0800
4900
6b00
1c00
1c00
6b00
4900
0800
0000
0000
0000
0000
0000
0000
ENDCHAR
STARTCHAR plus
ENCODING 43
BBX 10 18 0 -4
SWIDTH 556 0
DWIDTH 10 0
BITMAP
0000
0000
0000
0000
0000
0000
0800
0800
0800
7f00
0800
0800
0800
0000
0000
0000
0000
0000
ENDCHAR
STARTCHAR comma
ENCODING 44
BBX 10 18 0 -4
SWIDTH 556 0
DWIDTH 10 0
BITMAP
0000
0000
0000
0000
0000
0000
0000
0000
0000
0000
0000
0800
1c00
0c00
0800
1000
2000
0000
ENDCHAR
STARTCHAR hyphen
ENCODING 45
BBX 10 18 0 -4
SWIDTH 556 0
DWIDTH 10 0
BITMAP
0000
0000
0000
0000
0000
0000
0000
0000
0000
7f00
0000
0000
0000
0000
0000
0000
0000
0000
ENDCHAR
STARTCHAR period
ENCODING 46
BBX 10 18 0 -4
SWIDTH 556 0
DWIDTH 10 0
BITMAP
0000
0000
0000
0000
0000
0000
0000
0000
0000
0000
0000
0800
1c00
0800
0000
0000
0000
0000
ENDCHAR
STARTCHAR slash
ENCODING 47
BBX 10 18 0 -4
SWIDTH 556 0
DWIDTH 10 0
BITMAP
0000
0000
0000
0100
0100
0200
0200
0400
0400
0800
0800
1000
1000
2000
2000
4000
4000
0000
ENDCHAR
STARTCHAR zero
ENCODING 48
BBX 10 18 0 -4
SWIDTH 556 0
DWIDTH 10 0
BITMAP
0000
0000
0000
0000
1c00
2600
2300
4100
4900
4900
4100
6200
3200
1c00
0000
0000
0000
0000
ENDCHAR
STARTCHAR one
ENCODING 49
BBX 10 18 0 -4
SWIDTH 556 0
DWIDTH 10 0
BITMAP
0000
0000
0000
0000
0800
1800
6800
0800
0800
0800
0800
0800
0800
7f00
0000
0000
0000
0000
ENDCHAR
STARTCHAR two
ENCODING 50
BBX 10 18 0 -4
SWIDTH 556 0
DWIDTH 10 0
BITMAP
0000
0000
0000
0000
1e00
2300
4100
0100
0200
0400
0800
1000
2100
7f00
0000
0000
0000
0000
ENDCHAR
STARTCHAR three
ENCODING 51
BBX 10 18 0 -4
SWIDTH 556 0
DWIDTH 10 0
BITMAP
0000
0000
0000
0000
1e00
2300
4100
0200
0e00
0300
0100
4100
6200
3c00
0000
0000
0000
0000
ENDCHAR
STARTCHAR four
ENCODING 52
BBX 10 18 0 -4
SWIDTH 556 0
DWIDTH 10 0
BITMAP
0000
0000
0000
0000
0100
0200
0400
0800
1200
2200
7f00
0200
0200
0700
0000
0000
0000
0000
ENDCHAR
STARTCHAR five
ENCODING 53
BBX 10 18 0 -4
SWIDTH 556 0
DWIDTH 10 0
BITMAP
0000
0000
0000
0000
3f00
2000
2000
2000
3e00
0300
0100
4100
6200
3c00
0000
0000
0000
0000
ENDCHAR
STARTCHAR six
ENCODING 54
BBX 10 18 0 -4
SWIDTH 556 0
DWIDTH 10 0
BITMAP
0000
0000
0000
0000
0600
1800
2000
2000
4e00
5300
6100
4100
6200
3c00
0000
0000
0000
0000
ENDCHAR
STARTCHAR seven
ENCODING 55
BBX 10 18 0 -4
SWIDTH 556 0
DWIDTH 10 0
BITMAP
0000
0000
0000
0000
7f00
4100
4200
0400
0400
0800
1000
1000
2000
2000
0000
0000
0000
0000
ENDCHAR
STARTCHAR eight
ENCODING 56
BBX 10 18 0 -4
SWIDTH 556 0
DWIDTH 10 0
BITMAP
0000
0000
0000
0000
1e00
2300
4100
6200
1c00
2300
4100
4100
6200
3c00
0000
0000
0000
0000
ENDCHAR
STARTCHAR nine
ENCODING 57
BBX 10 18 0 -4
SWIDTH 556 0
DWIDTH 10 0
BITMAP
0000
0000
0000
0000
1e00
2300
4100
4300
6500
3900
0200
0200
0c00
3000
0000
0000
0000
0000
ENDCHAR
STARTCHAR colon
ENCODING 58
BBX 10 18 0 -4
SWIDTH 556 0
DWIDTH 10 0
BITMAP
0000
0000
0000
0000
0000
0000
0800
1c00
0800
0000
0000
0800
1c00
0800
0000
0000
0000
0000
ENDCHAR
STARTCHAR semicolon
ENCODING 59
BBX 10 18 0 -4
SWIDTH 556 0
DWIDTH 10 0
BITMAP
0000
0000
0000
0000
0000
0000
0800
1c00
0800
0000
0000
0800
1c00
0c00
0800
1000
2000
0000
ENDCHAR
STARTCHAR less
ENCODING 60
BBX 10 18 0 -4
SWIDTH 556 0
DWIDTH 10 0
BITMAP
0000
0000
0000
0000
0000
0100
0600
0800
3000
4000
3000
0800
0600
0100
0000
0000
0000
0000
ENDCHAR
STARTCHAR equal
ENCODING 61
BBX 10 18 0 -4
SWIDTH 556 0
DWIDTH 10 0
BITMAP
0000
0000
0000
0000
0000
0000
0000
0000
7f00
0000
0000
7f00
0000
0000
0000
0000
0000
0000
ENDCHAR
STARTCHAR greater
ENCODING 62
BBX 10 18 0 -4
SWIDTH 556 0
DWIDTH 10 0
BITMAP
0000
0000
0000
0000
0000
4000
3000
0800
0600
0100
0600
0800
3000
4000
0000
0000
0000
0000
ENDCHAR
STARTCHAR question
ENCODING 63
BBX 10 18 0 -4
SWIDTH 556 0
DWIDTH 10 0
BITMAP
0000
0000
0000
0000
1e00
2300
4100
0200
0400
0800
0000
0800
1c00
0800
0000
0000
0000
0000
ENDCHAR
STARTCHAR at
ENCODING 64
BBX 10 18 0 -4
SWIDTH 556 0
DWIDTH 10 0
BITMAP
0000
0000
0000
0000
1f00
6180
4480
8a80
9280
9280
9b00
ce00
6000
3e00
0000
0000
0000
0000
ENDCHAR
STARTCHAR A
ENCODING 65
BBX 10 18 0 -4
SWIDTH 556 0
DWIDTH 10 0
BITMAP
0000
0000
0000
0000
0800
0800
1c00
1400
1400
2200
3e00
4300
4100
e380
0000
0000
0000
0000
ENDCHAR
STARTCHAR B
ENCODING 66
BBX 10 18 0 -4
SWIDTH 556 0
DWIDTH 10 0
BITMAP
0000
0000
0000
0000
fc00
2600
2200
2400
3e00
2300
2100
2100
2200
fc00
0000
0000
0000
0000
ENDCHAR
STARTCHAR C
ENCODING 67
BBX 10 18 0 -4
SWIDTH 556 0
DWIDTH 10 0
BITMAP
0000
0000
0000
0000
0d00
3300
2100
4100
4000
4000
4000
6100
3200
1c00
0000
0000
0000
0000
ENDCHAR
STARTCHAR D
ENCODING 68
BBX 10 18 0 -4
SWIDTH 556 0
DWIDTH 10 0
BITMAP
0000
0000
0000
0000
fc00
2600
2300
2100
2100
2100
2100
2200
2600
f800
0000
0000
0000
0000
ENDCHAR
STARTCHAR E
ENCODING 69
BBX 10 18 0 -4
SWIDTH 556 0
DWIDTH 10 0
BITMAP
0000
0000
0000
0000
ff00
2100
2100
2400
3c00
2400
2000
2100
2100
ff00
0000
0000
0000
0000
ENDCHAR
STARTCHAR F
ENCODING 70
BBX 10 18 0 -4
SWIDTH 556 0
DWIDTH 10 0
BITMAP
0000
0000
0000
0000
ff00
2100
2100
2000
2400
3c00
2400
2000
2000
f800
0000
0000
0000
0000
ENDCHAR
STARTCHAR G
ENCODING 71
BBX 10 18 0 -4
SWIDTH 556 0
DWIDTH 10 0
BITMAP
0000
0000
0000
0000
0d00
3300
2100
4000
4000
4780
4100
6100
3300
1d00
0000
0000
0000
0000
ENDCHAR
STARTCHAR H
ENCODING 72
BBX 10 18 0 -4
SWIDTH 556 0
DWIDTH 10 0
BITMAP
0000
0000
0000
0000
e380
4100
4100
4100
7f00
4100
4100
4100
4100
e380
0000
0000
0000
0000
ENDCHAR
STARTCHAR I
ENCODING 73
BBX 10 18 0 -4
SWIDTH 556 0
DWIDTH 10 0
BITMAP
0000
0000
0000
0000
3e00
0800
0800
0800
0800
0800
0800
0800
0800
3e00
0000
0000
0000
0000
ENDCHAR
STARTCHAR J
ENCODING 74
BBX 10 18 0 -4
SWIDTH 556 0
DWIDTH 10 0
BITMAP
0000
0000
0000
0000
3e00
0800
0800
0800
0800
0800
0800
0800
1000
1000
1000
2000
4000
8000
ENDCHAR
STARTCHAR K
ENCODING 75
BBX 10 18 0 -4
SWIDTH 556 0
DWIDTH 10 0
BITMAP
0000
0000
0000
0000
e380
4200
4400
4800
5800
6400
4400
4200
4100
e380
0000
0000
0000
0000
ENDCHAR
STARTCHAR L
ENCODING 76
BBX 10 18 0 -4
SWIDTH 556 0
DWIDTH 10 0
BITMAP
0000
0000
0000
0000
f800
2000
2000
2000
2000
2000
2000
2100
2100
ff00
0000
0000
0000
0000
ENDCHAR
STARTCHAR M
ENCODING 77
BBX 10 18 0 -4
SWIDTH 556 0
DWIDTH 10 0
BITMAP
0000
0000
0000
0000
c180
6300
6300
7500
5500
5900
4900
4900
4100
e380
0000
0000
0000
0000
ENDCHAR
STARTCHAR N
ENCODING 78
BBX 10 18 0 -4
SWIDTH 556 0
DWIDTH 10 0
BITMAP
0000
0000
0000
0000
c380
6100
7100
5100
5900
4d00
4500
4700
4300
e100
0000
0000
0000
0000
ENDCHAR
STARTCHAR O
ENCODING 79
BBX 10 18 0 -4
SWIDTH 556 0
DWIDTH 10 0
BITMAP
0000
0000
0000
0000
1e00
2300
4100
4100
4100
4100
4100
4100
6200
3c00
0000
0000
0000
0000
ENDCHAR
STARTCHAR P
ENCODING 80
BBX 10 18 0 -4
SWIDTH 556 0
DWIDTH 10 0
BITMAP
0000
0000
0000
0000
fe00
2300
2100
2100
2200
3c00
2000
2000
2000
f800
0000
0000
0000
0000
ENDCHAR
STARTCHAR Q
ENCODING 81
BBX 10 18 0 -4
SWIDTH 556 0
DWIDTH 10 0
BITMAP
0000
0000
0000
0000
1e00
2300
4100
4100
4100
4100
4100
4100
6200
3c00
0800
0c00
0700
0000
ENDCHAR
STARTCHAR R
ENCODING 82
BBX 10 18 0 -4
SWIDTH 556 0
DWIDTH 10 0
BITMAP
0000
0000
0000
0000
fe00
2300
2100
2100
2200
3c00
2c00
2600
2300
f980
0000
0000
0000
0000
ENDCHAR
STARTCHAR S
ENCODING 83
BBX 10 18 0 -4
SWIDTH 556 0
DWIDTH 10 0
BITMAP
0000
0000
0000
0000
1e00
2300
4100
6000
3e00
0300
0100
4100
6200
3c00
0000
0000
0000
0000
ENDCHAR
STARTCHAR T
ENCODING 84
BBX 10 18 0 -4
SWIDTH 556 0
DWIDTH 10 0
BITMAP
0000
0000
0000
0000
7f00
4900
4900
0800
0800
0800
0800
0800
0800
3e00
0000
0000
0000
0000
ENDCHAR
STARTCHAR U
ENCODING 85
BBX 10 18 0 -4
SWIDTH 556 0
DWIDTH 10 0
BITMAP
0000
0000
0000
0000
e380
4100
4100
4100
4100
4100
4100
4100
6200
3c00
0000
0000
0000
0000
ENDCHAR
STARTCHAR V
ENCODING 86
BBX 10 18 0 -4
SWIDTH 556 0
DWIDTH 10 0
BITMAP
0000
0000
0000
0000
e380
4100
6200
2200
3200
1400
1400
1800
0800
0800
0000
0000
0000
0000
ENDCHAR
STARTCHAR W
ENCODING 87
BBX 10 18 0 -4
SWIDTH 556 0
DWIDTH 10 0
BITMAP
0000
0000
0000
0000
e380
4900
4900
4d00
5500
7500
3600
2200
2200
2200
0000
0000
0000
0000
ENDCHAR
STARTCHAR X
ENCODING 88
BBX 10 18 0 -4
SWIDTH 556 0
DWIDTH 10 0
BITMAP
0000
0000
0000
0000
e380
2200
3200
1400
1800
0c00
1400
2600
2200
e380
0000
0000
0000
0000
ENDCHAR
STARTCHAR Y
ENCODING 89
BBX 10 18 0 -4
SWIDTH 556 0
DWIDTH 10 0
BITMAP
0000
0000
0000
0000
e380
4100
6200
3200
1400
1800
0800
0800
0800
3e00
0000
0000
0000
0000
ENDCHAR
STARTCHAR Z
ENCODING 90
BBX 10 18 0 -4
SWIDTH 556 0
DWIDTH 10 0
BITMAP
0000
0000
0000
0000
7f00
4200
4200
0400
0800
1000
1000
2100
4100
7f00
0000
0000
0000
0000
ENDCHAR
STARTCHAR bracketleft
ENCODING 91
BBX 10 18 0 -4
SWIDTH 556 0
DWIDTH 10 0
BITMAP
0000
0000
0000
1c00
1000
1000
1000
1000
1000
1000
1000
1000
1000
1000
1000
1000
1c00
0000
ENDCHAR
STARTCHAR backslash
ENCODING 92
BBX 10 18 0 -4
SWIDTH 556 0
DWIDTH 10 0
BITMAP
0000
0000
0000
4000
4000
2000
2000
1000
1000
0800
0800
0400
0400
0200
0200
0100
0100
0000
ENDCHAR
STARTCHAR bracketright
ENCODING 93
BBX 10 18 0 -4
SWIDTH 556 0
DWIDTH 10 0
BITMAP
0000
0000
0000
1c00
0400
0400
0400
0400
0400
0400
0400
0400
0400
0400
0400
0400
1c00
0000
ENDCHAR
STARTCHAR asciicircum
ENCODING 94
BBX 10 18 0 -4
SWIDTH 556 0
DWIDTH 10 0
BITMAP
0000
0000
0000
0800
1400
2200
4100
0000
0000
0000
0000
0000
0000
0000
0000
0000
0000
0000
ENDCHAR
STARTCHAR underscore
ENCODING 95
BBX 10 18 0 -4
SWIDTH 556 0
DWIDTH 10 0
BITMAP
0000
0000
0000
0000
0000
0000
0000
0000
0000
0000
0000
0000
0000
0000
0000
0000
0000
7f00
ENDCHAR
STARTCHAR grave
ENCODING 96
BBX 10 18 0 -4
SWIDTH 556 0
DWIDTH 10 0
BITMAP
0000
0000
0000
0000
3000
1c00
0600
0000
0000
0000
0000
0000
0000
0000
0000
0000
0000
0000
ENDCHAR
STARTCHAR a
ENCODING 97
BBX 10 18 0 -4
SWIDTH 556 0
DWIDTH 10 0
BITMAP
0000
0000
0000
0000
0000
0000
1e00
2300
0100
1f00
2100
4100
6300
3c80
0000
0000
0000
0000
ENDCHAR
STARTCHAR b
ENCODING 98
BBX 10 18 0 -4
SWIDTH 556 0
DWIDTH 10 0
BITMAP
0000
0000
0000
c000
4000
4000
4e00
5300
6100
4100
4100
4100
6200
5c00
0000
0000
0000
0000
ENDCHAR
STARTCHAR c
ENCODING 99
BBX 10 18 0 -4
SWIDTH 556 0
DWIDTH 10 0
BITMAP
0000
0000
0000
0000
0000
0000
1e00
2300
4100
4000
4000
4000
6100
3e00
0000
0000
0000
0000
ENDCHAR
STARTCHAR d
ENCODING 100
BBX 10 18 0 -4
SWIDTH 556 0
DWIDTH 10 0
BITMAP
0000
0000
0000
0700
0100
0100
1d00
2300
4100
4100
4100
4300
6500
3980
0000
0000
0000
0000
ENDCHAR
STARTCHAR e
ENCODING 101
BBX 10 18 0 -4
SWIDTH 556 0
DWIDTH 10 0
BITMAP
0000
0000
0000
0000
0000
0000
1e00
2300
4100
7e00
4000
4000
6100
3e00
0000
0000
0000
0000
ENDCHAR
STARTCHAR f
ENCODING 102
BBX 10 18 0 -4
SWIDTH 556 0
DWIDTH 10 0
BITMAP
0000
0000
0000
0e00
1300
1000
7c00
1000
1000
1000
1000
1000
1000
7c00
0000
0000
0000
0000
ENDCHAR
STARTCHAR g
ENCODING 103
BBX 10 18 0 -4
SWIDTH 556 0
DWIDTH 10 0
BITMAP
0000
0000
0000
0000
0300
0200
3e00
4300
4100
4100
6100
3e00
1000
3e00
4300
6100
3e00
0000
ENDCHAR
STARTCHAR h
ENCODING 104
BBX 10 18 0 -4
SWIDTH 556 0
DWIDTH 10 0
BITMAP
0000
0000
0000
c000
4000
4000
4e00
5300
6100
4100
4100
4100
4100
e380
0000
0000
0000
0000
ENDCHAR
STARTCHAR i
ENCODING 105
BBX 10 18 0 -4
SWIDTH 556 0
DWIDTH 10 0
BITMAP
0000
0000
0800
1c00
0800
0000
3800
0800
0800
0800
0800
0800
0800
7f00
0000
0000
0000
0000
ENDCHAR
STARTCHAR j
ENCODING 106
BBX 10 18 0 -4
SWIDTH 556 0
DWIDTH 10 0
BITMAP
0000
0000
0400
0e00
0400
0000
1c00
0400
0400
0400
0400
0400
0400
0800
0800
1000
2000
4000
ENDCHAR
STARTCHAR k
ENCODING 107
BBX 10 18 0 -4
SWIDTH 556 0
DWIDTH 10 0
BITMAP
0000
0000
0000
c000
4000
4000
4700
4400
4800
5000
6800
4400
4200
e380
0000
0000
0000
0000
ENDCHAR
STARTCHAR l
ENCODING 108
BBX 10 18 0 -4
SWIDTH 556 0
DWIDTH 10 0
BITMAP
0000
0000
0000
3800
0800
0800
0800
0800
0800
0800
0800
0800
0800
7f00
0000
0000
0000
0000
ENDCHAR
STARTCHAR m
ENCODING 109
BBX 10 18 0 -4
SWIDTH 556 0
DWIDTH 10 0
BITMAP
0000
0000
0000
0000
0000
0000
db00
6d00
4900
4900
4900
4900
4900
ed80
0000
0000
0000
0000
ENDCHAR
STARTCHAR n
ENCODING 110
BBX 10 18 0 -4
SWIDTH 556 0
DWIDTH 10 0
BITMAP
0000
0000
0000
0000
0000
0000
ce00
5300
6100
4100
4100
4100
4100
e380
0000
0000
0000
0000
ENDCHAR
STARTCHAR o
ENCODING 111
BBX 10 18 0 -4
SWIDTH 556 0
DWIDTH 10 0
BITMAP
0000
0000
0000
0000
0000
0000
1e00
2300
4100
4100
4100
4100
6200
3c00
0000
0000
0000
0000
ENDCHAR
STARTCHAR p
ENCODING 112
BBX 10 18 0 -4
SWIDTH 556 0
DWIDTH 10 0
BITMAP
0000
0000
0000
0000
0000
0000
ce00
5300
6100
4100
4100
4100
6200
5c00
4000
4000
f000
0000
ENDCHAR
STARTCHAR q
ENCODING 113
BBX 10 18 0 -4
SWIDTH 556 0
DWIDTH 10 0
BITMAP
0000
0000
0000
0000
0000
0000
1d00
2300
4100
4100
4100
4300
6500
3900
0100
0100
0780
0000
ENDCHAR
STARTCHAR r
ENCODING 114
BBX 10 18 0 -4
SWIDTH 556 0
DWIDTH 10 0
BITMAP
0000
0000
0000
0000
0000
0000
ee00
3300
2100
2000
2000
2000
2000
fc00
0000
0000
0000
0000
ENDCHAR
STARTCHAR s
ENCODING 115
BBX 10 18 0 -4
SWIDTH 556 0
DWIDTH 10 0
BITMAP
0000
0000
0000
0000
0000
0000
3e00
4300
6000
3e00
0300
4100
6100
3e00
0000
0000
0000
0000
ENDCHAR
STARTCHAR t
ENCODING 116
BBX 10 18 0 -4
SWIDTH 556 0
DWIDTH 10 0
BITMAP
0000
0000
0000
0000
1000
1000
7e00
1000
1000
1000
1000
1000
1900
0e00
0000
0000
0000
0000
ENDCHAR
STARTCHAR u
ENCODING 117
BBX 10 18 0 -4
SWIDTH 556 0
DWIDTH 10 0
BITMAP
0000
0000
0000
0000
0000
0000
c300
4100
4100
4100
4100
4300
6500
3980
0000
0000
0000
0000
ENDCHAR
STARTCHAR v
ENCODING 118
BBX 10 18 0 -4
SWIDTH 556 0
DWIDTH 10 0
BITMAP
0000
0000
0000
0000
0000
0000
e380
4100
6200
2200
3400
1400
1800
0800
0000
0000
0000
0000
ENDCHAR
STARTCHAR w
ENCODING 119
BBX 10 18 0 -4
SWIDTH 556 0
DWIDTH 10 0
BITMAP
0000
0000
0000
0000
0000
0000
e380
4900
4900
4d00
7600
2600
2200
2200
0000
0000
0000
0000
ENDCHAR
STARTCHAR x
ENCODING 120
BBX 10 18 0 -4
SWIDTH 556 0
DWIDTH 10 0
BITMAP
0000
0000
0000
0000
0000
0000
e380
2200
3400
1800
0c00
1600
2200
e380
0000
0000
0000
0000
ENDCHAR
STARTCHAR y
ENCODING 121
BBX 10 18 0 -4
SWIDTH 556 0
DWIDTH 10 0
BITMAP
0000
0000
0000
0000
0000
0000
e380
4100
6200
2200
3400
1400
1800
0800
1000
e000
4000
0000
ENDCHAR
STARTCHAR z
ENCODING 122
BBX 10 18 0 -4
SWIDTH 556 0
DWIDTH 10 0
BITMAP
0000
0000
0000
0000
0000
0000
7f00
4200
0400
0800
0800
1000
2100
7f00
0000
0000
0000
0000
ENDCHAR
STARTCHAR braceleft
ENCODING 123
BBX 10 18 0 -4
SWIDTH 556 0
DWIDTH 10 0
BITMAP
0000
0000
0000
0200
0400
0800
0800
0800
0800
1000
2000
1000
0800
0800
0800
0800
0400
0200
ENDCHAR
STARTCHAR bar
ENCODING 124
BBX 10 18 0 -4
SWIDTH 556 0
DWIDTH 10 0
BITMAP
0000
0000
0000
0800
0800
0800
0800
0800
0800
0800
0800
0800
0800
0800
0800
0800
0800
0000
ENDCHAR
STARTCHAR braceright
ENCODING 125
BBX 10 18 0 -4
SWIDTH 556 0
DWIDTH 10 0
BITMAP
0000
0000
0000
2000
1000
0800
0800
0800
0800
0400
0200
0400
0800
0800
0800
0800
1000
2000
ENDCHAR
STARTCHAR asciitilde
ENCODING 126
BBX 10 18 0 -4
SWIDTH 556 0
DWIDTH 10 0
BITMAP
0000
0000
0000
0000
0000
0000
0000
0100
1900
3e00
4c00
4000
0000
0000
0000
0000
0000
0000
ENDCHAR
STARTCHAR nbspace
ENCODING 160
BBX 10 18 0 -4
SWIDTH 556 0
DWIDTH 10 0
BITMAP
0000
0000
0000
0000
0000
0000
0000
0000
0000
0000
0000
0000
0000
0000
0000
0000
0000
0000
ENDCHAR
STARTCHAR exclamdown
ENCODING 161
BBX 10 18 0 -4
SWIDTH 556 0
DWIDTH 10 0
BITMAP
0000
0000
0000
0000
0000
0000
0800
1c00
0800
0000
0000
0800
0800
1c00
1c00
1c00
0800
0000
ENDCHAR
STARTCHAR cent
ENCODING 162
BBX 10 18 0 -4
SWIDTH 556 0
DWIDTH 10 0
BITMAP
0000
0000
0000
0100
0100
0200
1e00
2700
4500
4800
4800
5000
7100
3e00
2000
4000
4000
0000
ENDCHAR
STARTCHAR sterling
ENCODING 163
BBX 10 18 0 -4
SWIDTH 556 0
DWIDTH 10 0
BITMAP
0000
0000
0000
0000
1c00
2600
2600
3000
7c00
1000
1000
7880
dc80
6700
0000
0000
0000
0000
ENDCHAR
STARTCHAR currency
ENCODING 164
BBX 10 18 0 -4
SWIDTH 556 0
DWIDTH 10 0
BITMAP
0000
0000
0000
0000
0000
c180
7f00
3600
6300
4100
6300
3600
7f00
c180
0000
0000
0000
0000
ENDCHAR
STARTCHAR yen
ENCODING 165
BBX 10 18 0 -4
SWIDTH 556 0
DWIDTH 10 0
BITMAP
0000
0000
0000
0000
e380
4100
6200
3200
7f00
1800
7f00
0800
0800
3e00
0000
0000
0000
0000
ENDCHAR
STARTCHAR brokenbar
ENCODING 166
BBX 10 18 0 -4
SWIDTH 556 0
DWIDTH 10 0
BITMAP
0000
0000
0000
0800
0800
0800
0800
0800
0000
0000
0000
0000
0800
0800
0800
0800
0800
0000
ENDCHAR
STARTCHAR section
ENCODING 167
BBX 10 18 0 -4
SWIDTH 556 0
DWIDTH 10 0
BITMAP
0000
0000
0000
1c00
2600
2200
3000
1800
2c00
2600
3200
1a00
0c00
0600
2200
3200
1c00
0000
ENDCHAR
STARTCHAR dieresis
ENCODING 168
BBX 10 18 0 -4
SWIDTH 556 0
DWIDTH 10 0
BITMAP
0000
0000
0000
2200
7700
2200
0000
0000
0000
0000
0000
0000
0000
0000
0000
0000
0000
0000
ENDCHAR
STARTCHAR copyright
ENCODING 169
BBX 10 18 0 -4
SWIDTH 556 0
DWIDTH 10 0
BITMAP
0000
0000
0000
0000
3e00
4100
9c80
b680
a080
a080
b680
9c80
4100
3e00
0000
0000
0000
0000
ENDCHAR
STARTCHAR ordfeminine
ENCODING 170
BBX 10 18 0 -4
SWIDTH 556 0
DWIDTH 10 0
BITMAP
0000
0000
1e00
2300
0100
1f00
2100
4100
6300
3c80
0000
3e00
0000
0000
0000
0000
0000
0000
ENDCHAR
STARTCHAR guillemotleft
ENCODING 171
BBX 10 18 0 -4
SWIDTH 556 0
DWIDTH 10 0
BITMAP
0000
0000
0000
0000
0000
0000
0880
1100
2200
6600
cc00
6600
2200
1100
0880
0000
0000
0000
ENDCHAR
STARTCHAR logicalnot
ENCODING 172
BBX 10 18 0 -4
SWIDTH 556 0
DWIDTH 10 0
BITMAP
0000
0000
0000
0000
0000
0000
0000
0000
7f00
0100
0100
0100
0000
0000
0000
0000
0000
0000
ENDCHAR
STARTCHAR sfthyphen
ENCODING 173
BBX 10 18 0 -4
SWIDTH 556 0
DWIDTH 10 0
BITMAP
0000
0000
0000
0000
0000
0000
0000
0000
0000
3e00
0000
0000
0000
0000
0000
0000
0000
0000
ENDCHAR
STARTCHAR registered
ENCODING 174
BBX 10 18 0 -4
SWIDTH 556 0
DWIDTH 10 0
BITMAP
0000
0000
0000
0000
3e00
4100
bc80
a680
a280
bc80
a680
a280
4100
3e00
0000
0000
0000
0000
ENDCHAR
STARTCHAR macron
ENCODING 175
BBX 10 18 0 -4
SWIDTH 556 0
DWIDTH 10 0
BITMAP
0000
0000
0000
3e00
0000
0000
0000
0000
0000
0000
0000
0000
0000
0000
0000
0000
0000
0000
ENDCHAR
STARTCHAR degree
ENCODING 176
BBX 10 18 0 -4
SWIDTH 556 0
DWIDTH 10 0
BITMAP
0000
0000
0000
1c00
2200
2200
2200
1c00
0000
0000
0000
0000
0000
0000
0000
0000
0000
0000
ENDCHAR
STARTCHAR plusminus
ENCODING 177
BBX 10 18 0 -4
SWIDTH 556 0
DWIDTH 10 0
BITMAP
0000
0000
0000
0000
0000
0800
0800
0800
7f00
0800
0800
0800
0000
7f00
0000
0000
0000
0000
ENDCHAR
STARTCHAR twosuperior
ENCODING 178
BBX 10 18 0 -4
SWIDTH 556 0
DWIDTH 10 0
BITMAP
0000
0000
0000
1c00
2600
0200
0400
0800
1200
3e00
0000
0000
0000
0000
0000
0000
0000
0000
ENDCHAR
STARTCHAR threesuperior
ENCODING 179
BBX 10 18 0 -4
SWIDTH 556 0
DWIDTH 10 0
BITMAP
0000
0000
0000
1c00
2600
0200
0c00
0600
2200
1c00
0000
0000
0000
0000
0000
0000
0000
0000
ENDCHAR
STARTCHAR acute
ENCODING 180
BBX 10 18 0 -4
SWIDTH 556 0
DWIDTH 10 0
BITMAP
0000
0000
0200
0400
0800
1000
2000
0000
0000
0000
0000
0000
0000
0000
0000
0000
0000
0000
ENDCHAR
STARTCHAR mu
ENCODING 181
BBX 10 18 0 -4
SWIDTH 556 0
DWIDTH 10 0
BITMAP
0000
0000
0000
0000
0000
0000
6300
2100
2100
2100
4200
4200
6600
5900
8000
8000
8000
0000
ENDCHAR
STARTCHAR paragraph
ENCODING 182
BBX 10 18 0 -4
SWIDTH 556 0
DWIDTH 10 0
BITMAP
0000
0000
0000
1f00
3a00
7a00
7a00
7a00
3a00
1a00
0a00
0a00
0a00
0a00
0a00
0a00
0a00
0000
ENDCHAR
STARTCHAR periodcentered
ENCODING 183
BBX 10 18 0 -4
SWIDTH 556 0
DWIDTH 10 0
BITMAP
0000
0000
0000
0000
0000
0000
0000
0000
0800
1c00
0800
0000
0000
0000
0000
0000
0000
0000
ENDCHAR
STARTCHAR cedilla
ENCODING 184
BBX 10 18 0 -4
SWIDTH 556 0
DWIDTH 10 0
BITMAP
0000
0000
0000
0000
0000
0000
0000
0000
0000
0000
0000
0000
0000
0800
1000
1c00
0600
1c00
ENDCHAR
STARTCHAR onesuperior
ENCODING 185
BBX 10 18 0 -4
SWIDTH 556 0
DWIDTH 10 0
BITMAP
0000
0000
0000
0800
3800
0800
0800
0800
0800
3e00
0000
0000
0000
0000
0000
0000
0000
0000
ENDCHAR
STARTCHAR ordmasculine
ENCODING 186
BBX 10 18 0 -4
SWIDTH 556 0
DWIDTH 10 0
BITMAP
0000
0000
1e00
2300
4100
4100
4100
4100
6200
3c00
0000
3e00
0000
0000
0000
0000
0000
0000
ENDCHAR
STARTCHAR guillemotright
ENCODING 187
BBX 10 18 0 -4
SWIDTH 556 0
DWIDTH 10 0
BITMAP
0000
0000
0000
0000
0000
0000
8800
4400
2200
3300
1980
3300
2200
4400
8800
0000
0000
0000
ENDCHAR
STARTCHAR onequarter
ENCODING 188
BBX 10 18 0 -4
SWIDTH 556 0
DWIDTH 10 0
BITMAP
0000
0800
3800
0800
0800
0800
0800
3e00
0000
7f00
0000
0200
0400
0800
1400
3e00
0400
0e00
ENDCHAR
STARTCHAR onehalf
ENCODING 189
BBX 10 18 0 -4
SWIDTH 556 0
DWIDTH 10 0
BITMAP
0000
0800
3800
0800
0800
0800
0800
3e00
0000
7f00
0000
1c00
2600
0200
0400
0800
1200
3e00
ENDCHAR
STARTCHAR threequarters
ENCODING 190
BBX 10 18 0 -4
SWIDTH 556 0
DWIDTH 10 0
BITMAP
0000
1c00
2600
0200
0c00
0600
2200
1c00
0000
7f00
0000
0200
0400
0800
1400
3e00
0400
0e00
ENDCHAR
STARTCHAR questiondown
ENCODING 191
BBX 10 18 0 -4
SWIDTH 556 0
DWIDTH 10 0
BITMAP
0000
0000
0000
0000
0000
0000
0800
1c00
0800
0000
0800
1000
2000
4100
6200
3c00
0000
0000
ENDCHAR
STARTCHAR Agrave
ENCODING 192
BBX 10 18 0 -4
SWIDTH 556 0
DWIDTH 10 0
BITMAP
3000
0c00
0200
0000
0800
0800
1c00
1400
1400
2200
3e00
4300
4100
e380
0000
0000
0000
0000
ENDCHAR
STARTCHAR Aacute
ENCODING 193
BBX 10 18 0 -4
SWIDTH 556 0
DWIDTH 10 0
BITMAP
0600
1800
2000
0000
0800
0800
1c00
1400
1400
2200
3e00
4300
4100
e380
0000
0000
0000
0000
ENDCHAR
STARTCHAR Acircumflex
ENCODING 194
BBX 10 18 0 -4
SWIDTH 556 0
DWIDTH 10 0
BITMAP
0800
1400
2200
0000
0800
0800
1c00
1400
1400
2200
3e00
4300
4100
e380
0000
0000
0000
0000
ENDCHAR
STARTCHAR Atilde
ENCODING 195
BBX 10 18 0 -4
SWIDTH 556 0
DWIDTH 10 0
BITMAP
3100
5d00
4600
0000
0800
0800
1c00
1400
1400
2200
3e00
4300
4100
e380
0000
0000
0000
0000
ENDCHAR
STARTCHAR Adieresis
ENCODING 196
BBX 10 18 0 -4
SWIDTH 556 0
DWIDTH 10 0
BITMAP
2200
7700
2200
0000
0800
0800
1c00
1400
1400
2200
3e00
4300
4100
e380
0000
0000
0000
0000
ENDCHAR
STARTCHAR Aring
ENCODING 197
BBX 10 18 0 -4
SWIDTH 556 0
DWIDTH 10 0
BITMAP
1c00
2200
1c00
0000
0800
0800
1c00
1400
1400
2200
3e00
4300
4100
e380
0000
0000
0000
0000
ENDCHAR
STARTCHAR AE
ENCODING 198
BBX 10 18 0 -4
SWIDTH 556 0
DWIDTH 10 0
BITMAP
0000
0000
0000
0000
1f80
0c80
1480
1400
1700
2400
3c00
2480
4480
ef80
0000
0000
0000
0000
ENDCHAR
STARTCHAR Ccedilla
ENCODING 199
BBX 10 18 0 -4
SWIDTH 556 0
DWIDTH 10 0
BITMAP
0000
0000
0000
0000
0d00
3300
2100
4100
4000
4000
4000
6100
3200
1c00
0800
0c00
0600
1c00
ENDCHAR
STARTCHAR Egrave
ENCODING 200
BBX 10 18 0 -4
SWIDTH 556 0
DWIDTH 10 0
BITMAP
3000
0c00
0200
0000
ff00
2100
2100
2400
3c00
2400
2000
2100
2100
ff00
0000
0000
0000
0000
ENDCHAR
STARTCHAR Eacute
ENCODING 201
BBX 10 18 0 -4
SWIDTH 556 0
DWIDTH 10 0
BITMAP
0600
1800
2000
0000
ff00
2100
2100
2400
3c00
2400
2000
2100
2100
ff00
0000
0000
0000
0000
ENDCHAR
STARTCHAR Ecircumflex
ENCODING 202
BBX 10 18 0 -4
SWIDTH 556 0
DWIDTH 10 0
BITMAP
0800
1400
2200
0000
ff00
2100
2100
2400
3c00
2400
2000
2100
2100
ff00
0000
0000
0000
0000
ENDCHAR
STARTCHAR Edieresis
ENCODING 203
BBX 10 18 0 -4
SWIDTH 556 0
DWIDTH 10 0
BITMAP
2200
7700
2200
0000
ff00
2100
2100
2400
3c00
2400
2000
2100
2100
ff00
0000
0000
0000
0000
ENDCHAR
STARTCHAR Igrave
ENCODING 204
BBX 10 18 0 -4
SWIDTH 556 0
DWIDTH 10 0
BITMAP
3000
0c00
0200
0000
3e00
0800
0800
0800
0800
0800
0800
0800
0800
3e00
0000
0000
0000
0000
ENDCHAR
STARTCHAR Iacute
ENCODING 205
BBX 10 18 0 -4
SWIDTH 556 0
DWIDTH 10 0
BITMAP
0600
1800
2000
0000
3e00
0800
0800
0800
0800
0800
0800
0800
0800
3e00
0000
0000
0000
0000
ENDCHAR
STARTCHAR Icircumflex
ENCODING 206
BBX 10 18 0 -4
SWIDTH 556 0
DWIDTH 10 0
BITMAP
0800
1400
2200
0000
3e00
0800
0800
0800
0800
0800
0800
0800
0800
3e00
0000
0000
0000
0000
ENDCHAR
STARTCHAR Idieresis
ENCODING 207
BBX 10 18 0 -4
SWIDTH 556 0
DWIDTH 10 0
BITMAP
2200
7700
2200
0000
3e00
0800
0800
0800
0800
0800
0800
0800
0800
3e00
0000
0000
0000
0000
ENDCHAR
STARTCHAR Eth
ENCODING 208
BBX 10 18 0 -4
SWIDTH 556 0
DWIDTH 10 0
BITMAP
0000
0000
0000
0000
fc00
2600
2300
2100
2100
f900
2100
2200
2600
f800
0000
0000
0000
0000
ENDCHAR
STARTCHAR Ntilde
ENCODING 209
BBX 10 18 0 -4
SWIDTH 556 0
DWIDTH 10 0
BITMAP
3100
5d00
4600
0000
c380
6100
7100
5100
5900
4d00
4500
4700
4300
e100
0000
0000
0000
0000
ENDCHAR
STARTCHAR Ograve
ENCODING 210
BBX 10 18 0 -4
SWIDTH 556 0
DWIDTH 10 0
BITMAP
3000
0c00
0200
0000
1e00
2300
4100
4100
4100
4100
4100
4100
6200
3c00
0000
0000
0000
0000
ENDCHAR
STARTCHAR Oacute
ENCODING 211
BBX 10 18 0 -4
SWIDTH 556 0
DWIDTH 10 0
BITMAP
0600
1800
2000
0000
1e00
2300
4100
4100
4100
4100
4100
4100
6200
3c00
0000
0000
0000
0000
ENDCHAR
STARTCHAR Ocircumflex
ENCODING 212
BBX 10 18 0 -4
SWIDTH 556 0
DWIDTH 10 0
BITMAP
0800
1400
2200
0000
1e00
2300
4100
4100
4100
4100
4100
4100
6200
3c00
0000
0000
0000
0000
ENDCHAR
STARTCHAR Otilde
ENCODING 213
BBX 10 18 0 -4
SWIDTH 556 0
DWIDTH 10 0
BITMAP
3100
5d00
4600
0000
1e00
2300
4100
4100
4100
4100
4100
4100
6200
3c00
0000
0000
0000
0000
ENDCHAR
STARTCHAR Odieresis
ENCODING 214
BBX 10 18 0 -4
SWIDTH 556 0
DWIDTH 10 0
BITMAP
2200
7700
2200
0000
1e00
2300
4100
4100
4100
4100
4100
4100
6200
3c00
0000
0000
0000
0000
ENDCHAR
STARTCHAR multiply
ENCODING 215
BBX 10 18 0 -4
SWIDTH 556 0
DWIDTH 10 0
BITMAP
0000
0000
0000
0000
0000
0000
4100
2200
1400
0800
1400
2200
4100
0000
0000
0000
0000
0000
ENDCHAR
STARTCHAR Oslash
ENCODING 216
BBX 10 18 0 -4
SWIDTH 556 0
DWIDTH 10 0
BITMAP
0000
0000
0000
0100
1e00
2300
4500
4500
4900
4900
5100
5100
6200
3c00
4000
0000
0000
0000
ENDCHAR
STARTCHAR Ugrave
ENCODING 217
BBX 10 18 0 -4
SWIDTH 556 0
DWIDTH 10 0
BITMAP
3000
0c00
0200
0000
e380
4100
4100
4100
4100
4100
4100
4100
6200
3c00
0000
0000
0000
0000
ENDCHAR
STARTCHAR Uacute
ENCODING 218
BBX 10 18 0 -4
SWIDTH 556 0
DWIDTH 10 0
BITMAP
0600
1800
2000
0000
e380
4100
4100
4100
4100
4100
4100
4100
6200
3c00
0000
0000
0000
0000
ENDCHAR
STARTCHAR Ucircumflex
ENCODING 219
BBX 10 18 0 -4
SWIDTH 556 0
DWIDTH 10 0
BITMAP
0800
1400
2200
0000
e380
4100
4100
4100
4100
4100
4100
4100
6200
3c00
0000
0000
0000
0000
ENDCHAR
STARTCHAR Udieresis
ENCODING 220
BBX 10 18 0 -4
SWIDTH 556 0
DWIDTH 10 0
BITMAP
2200
7700
2200
0000
e380
4100
4100
4100
4100
4100
4100
4100
6200
3c00
0000
0000
0000
0000
ENDCHAR
STARTCHAR Yacute
ENCODING 221
BBX 10 18 0 -4
SWIDTH 556 0
DWIDTH 10 0
BITMAP
0600
1800
2000
0000
e380
4100
6200
3200
1400
1800
0800
0800
0800
3e00
0000
0000
0000
0000
ENDCHAR
STARTCHAR Thorn
ENCODING 222
BBX 10 18 0 -4
SWIDTH 556 0
DWIDTH 10 0
BITMAP
0000
0000
0000
0000
f800
2000
3e00
2300
2100
2100
2200
3c00
2000
f800
0000
0000
0000
0000
ENDCHAR
STARTCHAR germandbls
ENCODING 223
BBX 10 18 0 -4
SWIDTH 556 0
DWIDTH 10 0
BITMAP
0000
0000
0000
0000
0e00
1300
2100
2200
2700
2180
2080
2080
2900
e600
0000
0000
0000
0000
ENDCHAR
STARTCHAR agrave
ENCODING 224
BBX 10 18 0 -4
SWIDTH 556 0
DWIDTH 10 0
BITMAP
0000
0000
3000
0c00
0200
0000
1e00
2300
0100
1f00
2100
4100
6300
3c80
0000
0000
0000
0000
ENDCHAR
STARTCHAR aacute
ENCODING 225
BBX 10 18 0 -4
SWIDTH 556 0
DWIDTH 10 0
BITMAP
0000
0000
0600
1800
2000
0000
1e00
2300
0100
1f00
2100
4100
6300
3c80
0000
0000
0000
0000
ENDCHAR
STARTCHAR acircumflex
ENCODING 226
BBX 10 18 0 -4
SWIDTH 556 0
DWIDTH 10 0
BITMAP
0000
0000
0800
1400
2200
0000
1e00
2300
0100
1f00
2100
4100
6300
3c80
0000
0000
0000
0000
ENDCHAR
STARTCHAR atilde
ENCODING 227
BBX 10 18 0 -4
SWIDTH 556 0
DWIDTH 10 0
BITMAP
0000
0000
3100
5d00
4600
0000
1e00
2300
0100
1f00
2100
4100
6300
3c80
0000
0000
0000
0000
ENDCHAR
STARTCHAR adieresis
ENCODING 228
BBX 10 18 0 -4
SWIDTH 556 0
DWIDTH 10 0
BITMAP
0000
0000
2200
7700
2200
0000
1e00
2300
0100
1f00
2100
4100
6300
3c80
0000
0000
0000
0000
ENDCHAR
STARTCHAR aring
ENCODING 229
BBX 10 18 0 -4
SWIDTH 556 0
DWIDTH 10 0
BITMAP
0000
1c00
2200
2200
1c00
0000
1e00
2300
0100
1f00
2100
4100
6300
3c80
0000
0000
0000
0000
ENDCHAR
STARTCHAR ae
ENCODING 230
BBX 10 18 0 -4
SWIDTH 556 0
DWIDTH 10 0
BITMAP
0000
0000
0000
0000
0000
0000
3700
5980
0880
3f00
4800
8800
cc80
7700
0000
0000
0000
0000
ENDCHAR
STARTCHAR ccedilla
ENCODING 231
BBX 10 18 0 -4
SWIDTH 556 0
DWIDTH 10 0
BITMAP
0000
0000
0000
0000
0000
0000
1e00
2300
4100
4000
4000
4000
6100
3e00
0800
0c00
0600
1c00
ENDCHAR
STARTCHAR egrave
ENCODING 232
BBX 10 18 0 -4
SWIDTH 556 0
DWIDTH 10 0
BITMAP
0000
0000
3000
0c00
0200
0000
1e00
2300
4100
7e00
4000
4000
6100
3e00
0000
0000
0000
0000
ENDCHAR
STARTCHAR eacute
ENCODING 233
BBX 10 18 0 -4
SWIDTH 556 0
DWIDTH 10 0
BITMAP
0000
0000
0600
1800
2000
0000
1e00
2300
4100
7e00
4000
4000
6100
3e00
0000
0000
0000
0000
ENDCHAR
STARTCHAR ecircumflex
ENCODING 234
BBX 10 18 0 -4
SWIDTH 556 0
DWIDTH 10 0
BITMAP
0000
0000
0800
1400
2200
0000
1e00
2300
4100
7e00
4000
4000
6100
3e00
0000
0000
0000
0000
ENDCHAR
STARTCHAR edieresis
ENCODING 235
BBX 10 18 0 -4
SWIDTH 556 0
DWIDTH 10 0
BITMAP
0000
0000
2200
7700
2200
0000
1e00
2300
4100
7e00
4000
4000
6100
3e00
0000
0000
0000
0000
ENDCHAR
STARTCHAR igrave
ENCODING 236
BBX 10 18 0 -4
SWIDTH 556 0
DWIDTH 10 0
BITMAP
0000
0000
6000
1800
0400
0000
3800
0800
0800
0800
0800
0800
0800
7f00
0000
0000
0000
0000
ENDCHAR
STARTCHAR iacute
ENCODING 237
BBX 10 18 0 -4
SWIDTH 556 0
DWIDTH 10 0
BITMAP
0000
0000
0c00
3000
4000
0000
3800
0800
0800
0800
0800
0800
0800
7f00
0000
0000
0000
0000
ENDCHAR
STARTCHAR icircumflex
ENCODING 238
BBX 10 18 0 -4
SWIDTH 556 0
DWIDTH 10 0
BITMAP
0000
0000
1000
2800
4400
0000
3800
0800
0800
0800
0800
0800
0800
7f00
0000
0000
0000
0000
ENDCHAR
STARTCHAR idieresis
ENCODING 239
BBX 10 18 0 -4
SWIDTH 556 0
DWIDTH 10 0
BITMAP
0000
0000
4400
ee00
4400
0000
3800
0800
0800
0800
0800
0800
0800
7f00
0000
0000
0000
0000
ENDCHAR
STARTCHAR eth
ENCODING 240
BBX 10 18 0 -4
SWIDTH 556 0
DWIDTH 10 0
BITMAP
0000
0000
2200
3600
1800
6c00
4600
1e00
2300
4100
4100
4100
6200
3c00
0000
0000
0000
0000
ENDCHAR
STARTCHAR ntilde
ENCODING 241
BBX 10 18 0 -4
SWIDTH 556 0
DWIDTH 10 0
BITMAP
0000
0000
3100
5d00
4600
0000
ce00
5300
6100
4100
4100
4100
4100
e380
0000
0000
0000
0000
ENDCHAR
STARTCHAR ograve
ENCODING 242
BBX 10 18 0 -4
SWIDTH 556 0
DWIDTH 10 0
BITMAP
0000
0000
3000
0c00
0200
0000
1e00
2300
4100
4100
4100
4100
6200
3c00
0000
0000
0000
0000
ENDCHAR
STARTCHAR oacute
ENCODING 243
BBX 10 18 0 -4
SWIDTH 556 0
DWIDTH 10 0
BITMAP
0000
0000
0600
1800
2000
0000
1e00
2300
4100
4100
4100
4100
6200
3c00
0000
0000
0000
0000
ENDCHAR
STARTCHAR ocircumflex
ENCODING 244
BBX 10 18 0 -4
SWIDTH 556 0
DWIDTH 10 0
BITMAP
0000
0000
0800
1400
2200
0000
1e00
2300
4100
4100
4100
4100
6200
3c00
0000
0000
0000
0000
ENDCHAR
STARTCHAR otilde
ENCODING 245
BBX 10 18 0 -4
SWIDTH 556 0
DWIDTH 10 0
BITMAP
0000
0000
3100
5d00
4600
0000
1e00
2300
4100
4100
4100
4100
6200
3c00
0000
0000
0000
0000
ENDCHAR
STARTCHAR odieresis
ENCODING 246
BBX 10 18 0 -4
SWIDTH 556 0
DWIDTH 10 0
BITMAP
0000
0000
2200
7700
2200
0000
1e00
2300
4100
4100
4100
4100
6200
3c00
0000
0000
0000
0000
ENDCHAR
STARTCHAR divide
ENCODING 247
BBX 10 18 0 -4
SWIDTH 556 0
DWIDTH 10 0
BITMAP
0000
0000
0000
0000
0000
0800
1c00
0800
0000
7f00
0000
0800
1c00
0800
0000
0000
0000
0000
ENDCHAR
STARTCHAR oslash
ENCODING 248
BBX 10 18 0 -4
SWIDTH 556 0
DWIDTH 10 0
BITMAP
0000
0000
0000
0000
0000
0100
1e00
2300
4500
4900
4900
5100
6200
3c00
4000
0000
0000
0000
ENDCHAR
STARTCHAR ugrave
ENCODING 249
BBX 10 18 0 -4
SWIDTH 556 0
DWIDTH 10 0
BITMAP
0000
0000
3000
0c00
0200
0000
c300
4100
4100
4100
4100
4300
6500
3980
0000
0000
0000
0000
ENDCHAR
STARTCHAR uacute
ENCODING 250
BBX 10 18 0 -4
SWIDTH 556 0
DWIDTH 10 0
BITMAP
0000
0000
0600
1800
2000
0000
c300
4100
4100
4100
4100
4300
6500
3980
0000
0000
0000
0000
ENDCHAR
STARTCHAR ucircumflex
ENCODING 251
BBX 10 18 0 -4
SWIDTH 556 0
DWIDTH 10 0
BITMAP
0000
0000
0800
1400
2200
0000
c300
4100
4100
4100
4100
4300
6500
3980
0000
0000
0000
0000
ENDCHAR
STARTCHAR udieresis
ENCODING 252
BBX 10 18 0 -4
SWIDTH 556 0
DWIDTH 10 0
BITMAP
0000
0000
2200
7700
2200
0000
c300
4100
4100
4100
4100
4300
6500
3980
0000
0000
0000
0000
ENDCHAR
STARTCHAR yacute
ENCODING 253
BBX 10 18 0 -4
SWIDTH 556 0
DWIDTH 10 0
BITMAP
0000
0000
0600
1800
2000
0000
e380
4100
6200
2200
3400
1400
1800
0800
1000
e000
4000
0000
ENDCHAR
STARTCHAR thorn
ENCODING 254
BBX 10 18 0 -4
SWIDTH 556 0
DWIDTH 10 0
BITMAP
0000
0000
0000
c000
4000
4000
4e00
5300
6100
4100
4100
4100
6200
5c00
4000
4000
f000
0000
ENDCHAR
STARTCHAR ydieresis
ENCODING 255
BBX 10 18 0 -4
SWIDTH 556 0
DWIDTH 10 0
BITMAP
0000
0000
2200
7700
2200
0000
e380
4100
6200
2200
3400
1400
1800
0800
1000
e000
4000
0000
ENDCHAR
STARTCHAR SF040000
ENCODING 9496
BBX 10 18 0 -4
SWIDTH 556 0
DWIDTH 10 0
BITMAP
0800
0800
0800
0800
0800
0800
0800
0800
0800
f800
0000
0000
0000
0000
0000
0000
0000
0000
ENDCHAR
STARTCHAR SF030000
ENCODING 9488
BBX 10 18 0 -4
SWIDTH 556 0
DWIDTH 10 0
BITMAP
0000
0000
0000
0000
0000
0000
0000
0000
0000
f800
0800
0800
0800
0800
0800
0800
0800
0800
ENDCHAR
STARTCHAR SF010000
ENCODING 9484
BBX 10 18 0 -4
SWIDTH 556 0
DWIDTH 10 0
BITMAP
0000
0000
0000
0000
0000
0000
0000
0000
0000
0fc0
0800
0800
0800
0800
0800
0800
0800
0800
ENDCHAR
STARTCHAR SF020000
ENCODING 9492
BBX 10 18 0 -4
SWIDTH 556 0
DWIDTH 10 0
BITMAP
0800
0800
0800
0800
0800
0800
0800
0800
0800
0fc0
0000
0000
0000
0000
0000
0000
0000
0000
ENDCHAR
STARTCHAR SF050000
ENCODING 9532
BBX 10 18 0 -4
SWIDTH 556 0
DWIDTH 10 0
BITMAP
0800
0800
0800
0800
0800
0800
0800
0800
0800
ffc0
0800
0800
0800
0800
0800
0800
0800
0800
ENDCHAR
STARTCHAR SF100000
ENCODING 9472
BBX 10 18 0 -4
SWIDTH 556 0
DWIDTH 10 0
BITMAP
0000
0000
0000
0000
0000
0000
0000
0000
0000
ffc0
0000
0000
0000
0000
0000
0000
0000
0000
ENDCHAR
STARTCHAR SF080000
ENCODING 9500
BBX 10 18 0 -4
SWIDTH 556 0
DWIDTH 10 0
BITMAP
0800
0800
0800
0800
0800
0800
0800
0800
0800
0fc0
0800
0800
0800
0800
0800
0800
0800
0800
ENDCHAR
STARTCHAR SF090000
ENCODING 9508
BBX 10 18 0 -4
SWIDTH 556 0
DWIDTH 10 0
BITMAP
0800
0800
0800
0800
0800
0800
0800
0800
0800
f800
0800
0800
0800
0800
0800
0800
0800
0800
ENDCHAR
STARTCHAR SF070000
ENCODING 9524
BBX 10 18 0 -4
SWIDTH 556 0
DWIDTH 10 0
BITMAP
0800
0800
0800
0800
0800
0800
0800
0800
0800
ffc0
0000
0000
0000
0000
0000
0000
0000
0000
ENDCHAR
STARTCHAR SF060000
ENCODING 9516
BBX 10 18 0 -4
SWIDTH 556 0
DWIDTH 10 0
BITMAP
0000
0000
0000
0000
0000
0000
0000
0000
0000
ffc0
0800
0800
0800
0800
0800
0800
0800
0800
ENDCHAR
STARTCHAR SF110000
ENCODING 9474
BBX 10 18 0 -4
SWIDTH 556 0
DWIDTH 10 0
BITMAP
0800
0800
0800
0800
0800
0800
0800
0800
0800
0800
0800
0800
0800
0800
0800
0800
0800
0800
ENDCHAR
ENDFONT
